<svg xmlns="http://www.w3.org/2000/svg" width="760" height="380" viewBox="0 0 760 380" font-family="Segoe UI, Helvetica, Arial, sans-serif" role="img" aria-label="Total downloads, by release">
<rect width="760" height="380" fill="#ffffff"/>
<text x="56" y="26" font-size="16" font-weight="600" fill="#111827">Total downloads, by release</text>
<line x1="56" y1="316.0" x2="580" y2="316.0" stroke="#e5e7eb" stroke-width="1"/>
<text x="48" y="320.0" font-size="11" fill="#6b7280" text-anchor="end">0</text>
<line x1="56" y1="262.4" x2="580" y2="262.4" stroke="#e5e7eb" stroke-width="1"/>
<text x="48" y="266.4" font-size="11" fill="#6b7280" text-anchor="end">2</text>
<line x1="56" y1="208.8" x2="580" y2="208.8" stroke="#e5e7eb" stroke-width="1"/>
<text x="48" y="212.8" font-size="11" fill="#6b7280" text-anchor="end">4</text>
<line x1="56" y1="155.2" x2="580" y2="155.2" stroke="#e5e7eb" stroke-width="1"/>
<text x="48" y="159.2" font-size="11" fill="#6b7280" text-anchor="end">6</text>
<line x1="56" y1="101.6" x2="580" y2="101.6" stroke="#e5e7eb" stroke-width="1"/>
<text x="48" y="105.6" font-size="11" fill="#6b7280" text-anchor="end">8</text>
<line x1="56" y1="48.0" x2="580" y2="48.0" stroke="#e5e7eb" stroke-width="1"/>
<text x="48" y="52.0" font-size="11" fill="#6b7280" text-anchor="end">11</text>
<line x1="56" y1="48" x2="56" y2="316" stroke="#9ca3af" stroke-width="1"/>
<line x1="56" y1="316" x2="580" y2="316" stroke="#9ca3af" stroke-width="1"/>
<text x="56.0" y="336" font-size="11" fill="#6b7280" text-anchor="middle">v0.3</text>
<text x="103.6" y="336" font-size="11" fill="#6b7280" text-anchor="middle">v0.4</text>
<text x="151.3" y="336" font-size="11" fill="#6b7280" text-anchor="middle">v0.5</text>
<text x="198.9" y="336" font-size="11" fill="#6b7280" text-anchor="middle">v0.6</text>
<text x="246.5" y="336" font-size="11" fill="#6b7280" text-anchor="middle">v0.7</text>
<text x="294.2" y="336" font-size="11" fill="#6b7280" text-anchor="middle">v0.8.1</text>
<text x="341.8" y="336" font-size="11" fill="#6b7280" text-anchor="middle">v0.9.0</text>
<text x="389.5" y="336" font-size="11" fill="#6b7280" text-anchor="middle">v0.10.1</text>
<text x="437.1" y="336" font-size="11" fill="#6b7280" text-anchor="middle">v0.12.1</text>
<text x="484.7" y="336" font-size="11" fill="#6b7280" text-anchor="middle">v0.12.2</text>
<text x="532.4" y="336" font-size="11" fill="#6b7280" text-anchor="middle">v0.13.0</text>
<text x="580.0" y="336" font-size="11" fill="#6b7280" text-anchor="middle">v0.14.0</text>
<text x="318" y="368" font-size="12" fill="#374151" text-anchor="middle">Release tag (oldest -> newest)</text>
<polyline points="56.0,291.6 103.6,242.9 151.3,218.5 198.9,291.6 246.5,291.6 294.2,316.0 341.8,194.2 389.5,48.0 437.1,291.6 484.7,316.0 532.4,291.6 580.0,316.0" fill="none" stroke="#2563eb" stroke-width="2.5"/>
<circle cx="56.0" cy="291.6" r="3.5" fill="#2563eb"/>
<circle cx="103.6" cy="242.9" r="3.5" fill="#2563eb"/>
<circle cx="151.3" cy="218.5" r="3.5" fill="#2563eb"/>
<circle cx="198.9" cy="291.6" r="3.5" fill="#2563eb"/>
<circle cx="246.5" cy="291.6" r="3.5" fill="#2563eb"/>
<circle cx="294.2" cy="316.0" r="3.5" fill="#2563eb"/>
<circle cx="341.8" cy="194.2" r="3.5" fill="#2563eb"/>
<circle cx="389.5" cy="48.0" r="3.5" fill="#2563eb"/>
<circle cx="437.1" cy="291.6" r="3.5" fill="#2563eb"/>
<circle cx="484.7" cy="316.0" r="3.5" fill="#2563eb"/>
<circle cx="532.4" cy="291.6" r="3.5" fill="#2563eb"/>
<circle cx="580.0" cy="316.0" r="3.5" fill="#2563eb"/>
<rect x="596" y="48" width="14" height="14" rx="2" fill="#2563eb"/>
<text x="616" y="60" font-size="12" fill="#374151">Total downloads</text>
</svg>
