<svg xmlns="http://www.w3.org/2000/svg" width="760" height="380" viewBox="0 0 760 380" font-family="Segoe UI, Helvetica, Arial, sans-serif" role="img" aria-label="Total downloads, by release">
<rect width="760" height="380" fill="#ffffff"/>
<text x="56" y="26" font-size="16" font-weight="600" fill="#111827">Total downloads, by release</text>
<line x1="56" y1="316.0" x2="580" y2="316.0" stroke="#e5e7eb" stroke-width="1"/>
<text x="48" y="320.0" font-size="11" fill="#6b7280" text-anchor="end">0</text>
<line x1="56" y1="262.4" x2="580" y2="262.4" stroke="#e5e7eb" stroke-width="1"/>
<text x="48" y="266.4" font-size="11" fill="#6b7280" text-anchor="end">3</text>
<line x1="56" y1="208.8" x2="580" y2="208.8" stroke="#e5e7eb" stroke-width="1"/>
<text x="48" y="212.8" font-size="11" fill="#6b7280" text-anchor="end">6</text>
<line x1="56" y1="155.2" x2="580" y2="155.2" stroke="#e5e7eb" stroke-width="1"/>
<text x="48" y="159.2" font-size="11" fill="#6b7280" text-anchor="end">9</text>
<line x1="56" y1="101.6" x2="580" y2="101.6" stroke="#e5e7eb" stroke-width="1"/>
<text x="48" y="105.6" font-size="11" fill="#6b7280" text-anchor="end">12</text>
<line x1="56" y1="48.0" x2="580" y2="48.0" stroke="#e5e7eb" stroke-width="1"/>
<text x="48" y="52.0" font-size="11" fill="#6b7280" text-anchor="end">15</text>
<line x1="56" y1="48" x2="56" y2="316" stroke="#9ca3af" stroke-width="1"/>
<line x1="56" y1="316" x2="580" y2="316" stroke="#9ca3af" stroke-width="1"/>
<text x="56.0" y="336" font-size="11" fill="#6b7280" text-anchor="middle">v0.1</text>
<text x="71.9" y="336" font-size="11" fill="#6b7280" text-anchor="middle">v0.2</text>
<text x="87.8" y="336" font-size="11" fill="#6b7280" text-anchor="middle">v0.3</text>
<text x="103.6" y="336" font-size="11" fill="#6b7280" text-anchor="middle">v0.4</text>
<text x="119.5" y="336" font-size="11" fill="#6b7280" text-anchor="middle">v0.5</text>
<text x="135.4" y="336" font-size="11" fill="#6b7280" text-anchor="middle">v0.6</text>
<text x="151.3" y="336" font-size="11" fill="#6b7280" text-anchor="middle">v0.7</text>
<text x="167.2" y="336" font-size="11" fill="#6b7280" text-anchor="middle">v0.8</text>
<text x="183.0" y="336" font-size="11" fill="#6b7280" text-anchor="middle">v0.8.1</text>
<text x="198.9" y="336" font-size="11" fill="#6b7280" text-anchor="middle">v0.9.0</text>
<text x="214.8" y="336" font-size="11" fill="#6b7280" text-anchor="middle">v0.10.0</text>
<text x="230.7" y="336" font-size="11" fill="#6b7280" text-anchor="middle">v0.10.1</text>
<text x="246.5" y="336" font-size="11" fill="#6b7280" text-anchor="middle">v0.11.0</text>
<text x="262.4" y="336" font-size="11" fill="#6b7280" text-anchor="middle">v0.12.0</text>
<text x="278.3" y="336" font-size="11" fill="#6b7280" text-anchor="middle">v0.12.1</text>
<text x="294.2" y="336" font-size="11" fill="#6b7280" text-anchor="middle">v0.12.2</text>
<text x="310.1" y="336" font-size="11" fill="#6b7280" text-anchor="middle">v0.13.0</text>
<text x="325.9" y="336" font-size="11" fill="#6b7280" text-anchor="middle">v0.14.0</text>
<text x="341.8" y="336" font-size="11" fill="#6b7280" text-anchor="middle">v0.15.0</text>
<text x="357.7" y="336" font-size="11" fill="#6b7280" text-anchor="middle">v0.15.1</text>
<text x="373.6" y="336" font-size="11" fill="#6b7280" text-anchor="middle">v0.15.2</text>
<text x="389.5" y="336" font-size="11" fill="#6b7280" text-anchor="middle">v0.15.3</text>
<text x="405.3" y="336" font-size="11" fill="#6b7280" text-anchor="middle">v0.15.4</text>
<text x="421.2" y="336" font-size="11" fill="#6b7280" text-anchor="middle">v0.15.5</text>
<text x="437.1" y="336" font-size="11" fill="#6b7280" text-anchor="middle">v0.15.6</text>
<text x="453.0" y="336" font-size="11" fill="#6b7280" text-anchor="middle">v0.16.0</text>
<text x="468.8" y="336" font-size="11" fill="#6b7280" text-anchor="middle">v0.16.1</text>
<text x="484.7" y="336" font-size="11" fill="#6b7280" text-anchor="middle">v0.16.2</text>
<text x="500.6" y="336" font-size="11" fill="#6b7280" text-anchor="middle">v0.16.3</text>
<text x="516.5" y="336" font-size="11" fill="#6b7280" text-anchor="middle">v0.16.4</text>
<text x="532.4" y="336" font-size="11" fill="#6b7280" text-anchor="middle">v0.16.5</text>
<text x="548.2" y="336" font-size="11" fill="#6b7280" text-anchor="middle">v0.17.0</text>
<text x="564.1" y="336" font-size="11" fill="#6b7280" text-anchor="middle">v0.17.1</text>
<text x="580.0" y="336" font-size="11" fill="#6b7280" text-anchor="middle">v0.17.2</text>
<text x="318" y="368" font-size="12" fill="#374151" text-anchor="middle">Release tag (oldest -> newest)</text>
<polyline points="56.0,316.0 71.9,316.0 87.8,298.1 103.6,262.4 119.5,244.5 135.4,298.1 151.3,262.4 167.2,316.0 183.0,316.0 198.9,208.8 214.8,316.0 230.7,101.6 246.5,316.0 262.4,316.0 278.3,298.1 294.2,48.0 310.1,298.1 325.9,298.1 341.8,298.1 357.7,244.5 373.6,298.1 389.5,316.0 405.3,298.1 421.2,298.1 437.1,208.8 453.0,298.1 468.8,316.0 484.7,298.1 500.6,280.3 516.5,316.0 532.4,298.1 548.2,298.1 564.1,280.3 580.0,316.0" fill="none" stroke="#2563eb" stroke-width="2.5"/>
<circle cx="56.0" cy="316.0" r="3.5" fill="#2563eb"/>
<circle cx="71.9" cy="316.0" r="3.5" fill="#2563eb"/>
<circle cx="87.8" cy="298.1" r="3.5" fill="#2563eb"/>
<circle cx="103.6" cy="262.4" r="3.5" fill="#2563eb"/>
<circle cx="119.5" cy="244.5" r="3.5" fill="#2563eb"/>
<circle cx="135.4" cy="298.1" r="3.5" fill="#2563eb"/>
<circle cx="151.3" cy="262.4" r="3.5" fill="#2563eb"/>
<circle cx="167.2" cy="316.0" r="3.5" fill="#2563eb"/>
<circle cx="183.0" cy="316.0" r="3.5" fill="#2563eb"/>
<circle cx="198.9" cy="208.8" r="3.5" fill="#2563eb"/>
<circle cx="214.8" cy="316.0" r="3.5" fill="#2563eb"/>
<circle cx="230.7" cy="101.6" r="3.5" fill="#2563eb"/>
<circle cx="246.5" cy="316.0" r="3.5" fill="#2563eb"/>
<circle cx="262.4" cy="316.0" r="3.5" fill="#2563eb"/>
<circle cx="278.3" cy="298.1" r="3.5" fill="#2563eb"/>
<circle cx="294.2" cy="48.0" r="3.5" fill="#2563eb"/>
<circle cx="310.1" cy="298.1" r="3.5" fill="#2563eb"/>
<circle cx="325.9" cy="298.1" r="3.5" fill="#2563eb"/>
<circle cx="341.8" cy="298.1" r="3.5" fill="#2563eb"/>
<circle cx="357.7" cy="244.5" r="3.5" fill="#2563eb"/>
<circle cx="373.6" cy="298.1" r="3.5" fill="#2563eb"/>
<circle cx="389.5" cy="316.0" r="3.5" fill="#2563eb"/>
<circle cx="405.3" cy="298.1" r="3.5" fill="#2563eb"/>
<circle cx="421.2" cy="298.1" r="3.5" fill="#2563eb"/>
<circle cx="437.1" cy="208.8" r="3.5" fill="#2563eb"/>
<circle cx="453.0" cy="298.1" r="3.5" fill="#2563eb"/>
<circle cx="468.8" cy="316.0" r="3.5" fill="#2563eb"/>
<circle cx="484.7" cy="298.1" r="3.5" fill="#2563eb"/>
<circle cx="500.6" cy="280.3" r="3.5" fill="#2563eb"/>
<circle cx="516.5" cy="316.0" r="3.5" fill="#2563eb"/>
<circle cx="532.4" cy="298.1" r="3.5" fill="#2563eb"/>
<circle cx="548.2" cy="298.1" r="3.5" fill="#2563eb"/>
<circle cx="564.1" cy="280.3" r="3.5" fill="#2563eb"/>
<circle cx="580.0" cy="316.0" r="3.5" fill="#2563eb"/>
<rect x="596" y="48" width="14" height="14" rx="2" fill="#2563eb"/>
<text x="616" y="60" font-size="12" fill="#374151">Total downloads</text>
</svg>
